<?xml version="1.0" encoding="UTF-8" standalone="no"?>
<!-- Created with Inkscape (http://www.inkscape.org/) -->

<svg
   width="1600"
   height="800"
   viewBox="0 0 423.33333 211.66667"
   version="1.1"
   id="svg5"
   inkscape:version="1.2.2 (732a01da63, 2022-12-09)"
   sodipodi:docname="fondoFrame.svg"
   xmlns:inkscape="http://www.inkscape.org/namespaces/inkscape"
   xmlns:sodipodi="http://sodipodi.sourceforge.net/DTD/sodipodi-0.dtd"
   xmlns="http://www.w3.org/2000/svg"
   xmlns:svg="http://www.w3.org/2000/svg">
  <sodipodi:namedview
     id="namedview7"
     pagecolor="#ffffff"
     bordercolor="#000000"
     borderopacity="0.25"
     inkscape:showpageshadow="2"
     inkscape:pageopacity="0.0"
     inkscape:pagecheckerboard="0"
     inkscape:deskcolor="#d1d1d1"
     inkscape:document-units="mm"
     showgrid="false"
     inkscape:zoom="0.70710678"
     inkscape:cx="1186.5252"
     inkscape:cy="436.28488"
     inkscape:window-width="1920"
     inkscape:window-height="1001"
     inkscape:window-x="-9"
     inkscape:window-y="-9"
     inkscape:window-maximized="1"
     inkscape:current-layer="svg5" />
  <defs
     id="defs2" />
  <g
     inkscape:groupmode="layer"
     id="layer5"
     inkscape:label="Fondo"
     style="display:inline"
     sodipodi:insensitive="true">
    <path
       style="font-variation-settings:'wdth' 87, 'wght' 700;opacity:1;fill:#7c7b74;fill-opacity:1;stroke:none;stroke-width:1;stroke-linecap:square;stroke-dasharray:0.250001, 0.250001;stroke-dashoffset:0;stroke-opacity:1;paint-order:markers fill stroke"
       d="M 60.485435,211.69902 423.35846,68.610823 V 211.77768 Z"
       id="path7640" />
    <path
       style="font-variation-settings:'wdth' 87, 'wght' 700;fill:#7c7b74;fill-opacity:1;stroke:none;stroke-width:1;stroke-linecap:square;stroke-dasharray:0.250001, 0.250001;stroke-dashoffset:0;stroke-opacity:1;paint-order:markers fill stroke"
       d="M 0,190.65786 V 0 h 423.33333 l 0.19347,24.122326"
       id="path7698"
       sodipodi:nodetypes="cccc" />
    <path
       style="font-variation-settings:'wdth' 87, 'wght' 700;opacity:1;fill:#51504c;fill-opacity:1;stroke:none;stroke-width:1;stroke-linecap:square;stroke-dasharray:0.250001, 0.250001;stroke-dashoffset:0;stroke-opacity:1;paint-order:markers fill stroke"
       d="m 0,190.65786 v 21.0088 l 60.485435,0.0324 362.873025,-143.088197 0.16833,-44.488497 z"
       id="path7724" />
  </g>
  <path
     style="font-variation-settings:'wdth' 87, 'wght' 700;opacity:0.4;fill:#272727;fill-opacity:1;stroke:none;stroke-width:0.455055;stroke-linecap:square;stroke-dasharray:0.113764, 0.113764;stroke-dashoffset:0;stroke-opacity:1;paint-order:markers fill stroke"
     d="M 68.507318,136.06682 27.188273,54.555934 19.556363,53.853761 0.1875865,66.836767 0.07612601,86.567748 23.804923,153.6378 l 7.08419,0.1876 z"
     id="path9371"
     sodipodi:nodetypes="cccccccc" />
  <g
     inkscape:label="bocetos"
     inkscape:groupmode="layer"
     id="layer1"
     style="display:none"
     sodipodi:insensitive="true">
    <path
       style="font-variation-settings:'wdth' 87, 'wght' 700;opacity:1;fill:#baa136;stroke:#861703;stroke-width:0.528457;stroke-linecap:round;stroke-dasharray:0.132115, 0.132115;stroke-dashoffset:0;stroke-opacity:1;paint-order:markers fill stroke"
       d="M 1.2685954,161.56288 H 423.24267"
       id="path236" />
    <path
       style="font-variation-settings:'wdth' 87, 'wght' 700;fill:none;fill-opacity:1;stroke:#000000;stroke-width:0.528457;stroke-linecap:square;stroke-dasharray:0.132115, 0.132115;stroke-dashoffset:0;stroke-opacity:1;paint-order:markers fill stroke"
       d="M 23.718034,161.03305 V 61.207284 H 74.926869 V 161.29728 Z"
       id="path1523" />
    <path
       style="font-variation-settings:'wdth' 87, 'wght' 700;fill:none;stroke:#a01a1a;stroke-width:0.0546809;stroke-linecap:round;stroke-dasharray:0.0136702, 0.0136702;stroke-opacity:1;paint-order:markers fill stroke"
       d="M 23.789387,60.875113 178.47962,0.02270377"
       id="path361" />
    <path
       style="font-variation-settings:'wdth' 87, 'wght' 700;fill:none;stroke:#a01a1a;stroke-width:0.054839;stroke-linecap:round;stroke-dasharray:0.0137098, 0.0137098;stroke-opacity:1;paint-order:markers fill stroke"
       d="M 75.048009,61.051317 230.18616,0.02270377"
       id="path527" />
    <path
       style="font-variation-settings:'wdth' 87, 'wght' 700;fill:none;stroke:#000000;stroke-width:0.528457;stroke-linecap:round;stroke-dasharray:0.132115, 0.132115;stroke-dashoffset:0;stroke-opacity:1;paint-order:markers fill stroke"
       d="M 0.8817496,190.38341 423.5268,24.122326"
       id="path529" />
    <path
       style="font-variation-settings:'wdth' 87, 'wght' 700;fill:none;fill-opacity:1;stroke:#000000;stroke-width:0.524161;stroke-linecap:square;stroke-dasharray:0.13104, 0.13104;stroke-dashoffset:0;stroke-opacity:1;paint-order:markers fill stroke"
       d="M 88.368784,135.3868 V 36.220036 h 50.714336 v 99.429254 z"
       id="path1094" />
    <path
       style="font-variation-settings:'wdth' 87, 'wght' 700;fill:none;fill-opacity:1;stroke:#000000;stroke-width:0.524161;stroke-linecap:square;stroke-dasharray:0.13104, 0.13104;stroke-dashoffset:0;stroke-opacity:1;paint-order:markers fill stroke"
       d="M 152.52289,110.35391 V 11.187146 h 50.71434 V 110.6164 Z"
       id="path1096" />
    <path
       style="font-variation-settings:'wdth' 87, 'wght' 700;fill:none;fill-opacity:1;stroke:#000000;stroke-width:0.528457;stroke-linecap:square;stroke-dasharray:0.132115, 0.132115;stroke-dashoffset:0;stroke-opacity:1;paint-order:markers fill stroke"
       d="M 32.336502,157.53439 V 57.708617 H 83.545337 V 157.79861 Z"
       id="path1204" />
    <path
       style="font-variation-settings:'wdth' 87, 'wght' 700;fill:none;fill-opacity:1;stroke:#000000;stroke-width:0.528457;stroke-linecap:square;stroke-dasharray:0.132115, 0.132115;stroke-dashoffset:0;stroke-opacity:1;paint-order:markers fill stroke"
       d="M 96.769235,132.18769 V 32.361918 H 147.97807 V 132.45191 Z"
       id="path1206" />
    <path
       style="font-variation-settings:'wdth' 87, 'wght' 700;fill:none;fill-opacity:1;stroke:#000000;stroke-width:0.528457;stroke-linecap:square;stroke-dasharray:0.132115, 0.132115;stroke-dashoffset:0;stroke-opacity:1;paint-order:markers fill stroke"
       d="M 160.71683,107.08158 V 7.2558146 h 51.20883 V 107.34582 Z"
       id="path1208" />
    <path
       style="font-variation-settings:'wdth' 87, 'wght' 700;fill:none;stroke:#000000;stroke-width:0.454186;stroke-linecap:round;stroke-dasharray:0.113546, 0.113546;stroke-dashoffset:0;stroke-opacity:1;paint-order:markers fill stroke"
       d="M 60.330768,211.17844 423.57362,68.285132"
       id="path1210" />
    <path
       style="font-variation-settings:'wdth' 87, 'wght' 700;fill:none;fill-opacity:1;stroke:#064ce3;stroke-width:0.528457;stroke-linecap:square;stroke-dasharray:0.132115, 0.132115;stroke-dashoffset:0;stroke-opacity:1;paint-order:markers fill stroke"
       d="m 32.336502,57.708617 -8.618468,3.498667 v 99.825766 l 51.208835,0.26423 8.618466,-3.49867 V 57.708617 Z"
       id="path1938" />
    <path
       style="font-variation-settings:'wdth' 87, 'wght' 700;fill:none;fill-opacity:1;stroke:#064ce3;stroke-width:0.528457;stroke-linecap:square;stroke-dasharray:0.132115, 0.132115;stroke-dashoffset:0;stroke-opacity:1;paint-order:markers fill stroke"
       d="m 88.368778,36.220036 8.400457,-3.858118 H 147.97807 V 132.45191 l -8.89495,3.19738 -50.714342,-0.26249 V 36.220036"
       id="path3884" />
    <path
       style="font-variation-settings:'wdth' 87, 'wght' 700;fill:none;fill-opacity:1;stroke:#064ce3;stroke-width:0.528457;stroke-linecap:square;stroke-dasharray:0.132115, 0.132115;stroke-dashoffset:0;stroke-opacity:1;paint-order:markers fill stroke"
       d="m 152.52289,11.187146 8.19394,-3.9313318 h 51.20883 l 0.27861,99.9970558 -8.96704,3.36353 -50.71434,-0.26249 z"
       id="path3886" />
    <path
       style="font-variation-settings:'wdth' 87, 'wght' 700;fill:none;fill-opacity:1;stroke:#fb76f2;stroke-width:0.518633;stroke-linecap:square;stroke-dasharray:0.129658, 0.129658;stroke-dashoffset:0;stroke-opacity:1;paint-order:markers fill stroke"
       d="m 330.85489,147.55747 v -1.99908 c 0,0 13.92451,4.93893 17.99996,3.05742 4.07547,-1.88148 14.83017,-18.69735 18.56603,-19.6381 3.73582,-0.94075 19.92447,-11.52416 23.3207,-11.87693 3.39621,-0.35279 15.73579,-0.70556 15.73579,-0.70556 0.33209,0.77224 0.22644,41.27529 0.22644,41.27529 l -76.07534,0.23519 z"
       id="path3990"
       sodipodi:nodetypes="ccssssccc" />
    <path
       style="font-variation-settings:'wdth' 87, 'wght' 700;fill:none;fill-opacity:1;stroke:#064ce3;stroke-width:0.385215;stroke-linecap:square;stroke-dasharray:0.096305, 0.096305;stroke-dashoffset:0;stroke-opacity:1;paint-order:markers fill stroke"
       d="m 397.61467,161.03634 h -70.01161 v -12.55643 c 0,0 8.13473,7.04786 14.93082,6.86738 3.40886,-0.0905 3.65848,-10.37334 6.07266,-11.34682 2.4142,-0.97349 7.19718,-10.63767 10.09422,-12.58463 2.89705,-1.94695 7.07017,2.16112 12.98738,0.67168 10.16128,-2.55773 11.11396,-13.22591 15.30406,-13.15413 6.27953,0.10758 14.7266,0 14.7266,0 v 42.10295 z"
       id="path3888"
       sodipodi:nodetypes="cccsssssccc" />
    <path
       style="font-variation-settings:'wdth' 87, 'wght' 700;fill:none;fill-opacity:1;stroke:#76f1fb;stroke-width:0.528457;stroke-linecap:square;stroke-dasharray:0.132115, 0.132115;stroke-dashoffset:0;stroke-opacity:1;paint-order:markers fill stroke"
       d="m 406.87762,157.67777 -5.17288,3.52698 h -74.1837 v -12.57949 l 3.52694,-3.17427 c 0,0 10.34575,4.23235 12.81462,3.76208 2.46888,-0.47026 2.70401,-0.58781 2.70401,-0.58781 0,0 -0.70538,-3.64452 1.88104,-5.05532 2.58646,-1.41077 2.46887,-1.52835 6.34855,-6.93636 3.87963,-5.40799 3.85961,-6.24034 6.53019,-5.77272 2.67058,0.46761 2.85764,0.31174 2.85764,0.31174 0,0 0.59231,-1.21579 2.82645,-1.96397 2.23415,-0.74819 2.31732,-0.49879 10.54729,-5.23726 8.22998,-4.73849 10.47451,-6.6505 12.5528,-6.6505 2.07829,0 16.37687,-0.83132 16.37687,-0.83132 z"
       id="path4964" />
  </g>
  <g
     inkscape:groupmode="layer"
     id="layer3"
     inkscape:label="Formas"
     style="display:inline" />
  <path
     style="font-variation-settings:'wdth' 87, 'wght' 700;opacity:0.398;fill:#171209;fill-opacity:1;stroke:none;stroke-width:0.453033;stroke-linecap:square;stroke-dasharray:0.113259, 0.113259;stroke-dashoffset:0;stroke-opacity:1;paint-order:markers fill stroke"
     d="m 407.47936,158.22885 -4.86258,1.59331 -57.02692,1.76177 c 9.72502,-2.9888 17.01266,-27.86378 25.21551,-30.56494 5.67443,-2.98225 14.6047,-7.32882 18.73146,-10.39142 0,0 0.88075,-0.92338 2.6716,-0.90421 1.79088,0.0192 1.7469,0.27289 9.13492,-1.4655 7.38802,-1.7384 9.65019,-2.77802 11.03842,-2.12505 1.38824,0.65297 11.27093,4.38676 11.27093,4.38676 z"
     id="path9373"
     sodipodi:nodetypes="cccccssscc" />
  <g
     id="g9201"
     transform="translate(88.1711,94.771385)"
     style="display:inline">
    <path
       style="font-variation-settings:'wdth' 87, 'wght' 700;fill:#52461a;fill-opacity:1;stroke:#000000;stroke-width:0.528457;stroke-linecap:square;stroke-dasharray:0.132115, 0.132115;stroke-dashoffset:0;stroke-opacity:1;paint-order:markers fill stroke"
       d="m 318.5237,62.849781 -5.17289,3.526963 H 239.1671 V 53.797256 l 3.52695,-3.174265 c 0,0 10.34574,4.232352 12.81461,3.762085 2.46888,-0.470261 2.70401,-0.58782 2.70401,-0.58782 0,0 0.17105,-3.413014 2.75747,-4.823801 2.58646,-1.410785 1.59245,-1.759858 5.47213,-7.167867 3.87963,-5.407999 3.8596,-6.24034 6.53019,-5.772721 2.67059,0.46761 2.85763,0.311736 2.85763,0.311736 0,0 0.59233,-1.215792 2.82645,-1.963974 2.23417,-0.748181 2.31731,-0.498789 10.5473,-5.237266 8.22998,-4.738481 10.47452,-6.650497 12.55281,-6.650497 2.07829,0 16.37685,-0.831313 16.37685,-0.831313 z"
       id="path9197"
       sodipodi:nodetypes="cccccscssscssscc" />
    <path
       style="font-variation-settings:'wdth' 87, 'wght' 700;fill:#786624;fill-opacity:1;stroke:#000000;stroke-width:0.385215;stroke-linecap:square;stroke-dasharray:0.096305, 0.096305;stroke-dashoffset:0;stroke-opacity:1;paint-order:markers fill stroke"
       d="M 309.26074,66.208342 H 239.24912 V 53.651916 c 0,0 8.13472,7.04785 14.93082,6.86738 3.40887,-0.09053 3.65848,-10.37335 6.07265,-11.346827 2.41421,-0.973485 7.19721,-10.637666 10.09424,-12.584622 2.89705,-1.946954 7.07017,2.161106 12.98738,0.671669 10.16129,-2.55772 17.09374,-13.944868 17.57355,-13.807817 2.22802,0.636401 10.49754,1.035885 12.25584,0.629972 0.34022,-0.07854 4.52214,-2.048048 4.92313,-2.326574 0.24436,-0.169732 -4.72187,2.350296 -4.72187,2.350296 v 42.102949 z"
       id="path9199"
       sodipodi:nodetypes="cccsssssssccc" />
  </g>
  <path
     style="font-variation-settings:'wdth' 87, 'wght' 700;opacity:0.398;fill:#171209;fill-opacity:1;stroke:none;stroke-width:0.453033;stroke-linecap:square;stroke-dasharray:0.113259, 0.113259;stroke-dashoffset:0;stroke-opacity:1;paint-order:markers fill stroke"
     d="m 240.52974,61.316915 4.86258,1.593311 57.02692,1.761769 c -9.72502,-2.988798 -17.01266,-27.863774 -25.21551,-30.564938 -5.67443,-2.982243 -14.6047,-7.328818 -18.73146,-10.391421 0,0 -0.88075,-0.92338 -2.6716,-0.90421 -1.79088,0.01919 -1.7469,0.272893 -9.13492,-1.465497 -7.38802,-1.738396 -9.65019,-2.778019 -11.03842,-2.125049 -1.38824,0.65297 -11.27093,4.386759 -11.27093,4.386759 z"
     id="path9361"
     sodipodi:nodetypes="cccccssscc" />
  <g
     id="g8958"
     transform="matrix(-1,0,0,1,558.78152,-1.3921962)"
     style="display:inline">
    <path
       style="font-variation-settings:'wdth' 87, 'wght' 700;fill:#52461a;fill-opacity:1;stroke:#000000;stroke-width:0.528457;stroke-linecap:square;stroke-dasharray:0.132115, 0.132115;stroke-dashoffset:0;stroke-opacity:1;paint-order:markers fill stroke"
       d="m 318.5237,62.849781 -5.17289,3.526963 H 239.1671 V 53.797256 l 3.52695,-3.174265 c 0,0 10.34574,4.232352 12.81461,3.762085 2.46888,-0.470261 2.70401,-0.58782 2.70401,-0.58782 0,0 0.17105,-3.413014 2.75747,-4.823801 2.58646,-1.410785 1.59245,-1.759858 5.47213,-7.167867 3.87963,-5.407999 3.8596,-6.24034 6.53019,-5.772721 2.67059,0.46761 2.85763,0.311736 2.85763,0.311736 0,0 0.59233,-1.215792 2.82645,-1.963974 2.23417,-0.748181 2.31731,-0.498789 10.5473,-5.237266 8.22998,-4.738481 10.47452,-6.650497 12.55281,-6.650497 2.07829,0 16.37685,-0.831313 16.37685,-0.831313 z"
       id="path4964-2"
       sodipodi:nodetypes="cccccscssscssscc" />
    <path
       style="font-variation-settings:'wdth' 87, 'wght' 700;fill:#786624;fill-opacity:1;stroke:#000000;stroke-width:0.385215;stroke-linecap:square;stroke-dasharray:0.096305, 0.096305;stroke-dashoffset:0;stroke-opacity:1;paint-order:markers fill stroke"
       d="M 309.26074,66.208342 H 239.24912 V 53.651916 c 0,0 8.13472,7.04785 14.93082,6.86738 3.40887,-0.09053 3.65848,-10.37335 6.07265,-11.346827 2.41421,-0.973485 7.19721,-10.637666 10.09424,-12.584622 2.89705,-1.946954 7.07017,2.161106 12.98738,0.671669 10.16129,-2.55772 17.09374,-13.944868 17.57355,-13.807817 2.22802,0.636401 10.49754,1.035885 12.25584,0.629972 0.34022,-0.07854 4.52214,-2.048048 4.92313,-2.326574 0.24436,-0.169732 -4.72187,2.350296 -4.72187,2.350296 v 42.102949 z"
       id="path3888-8"
       sodipodi:nodetypes="cccsssssssccc" />
  </g>
  <path
     style="font-variation-settings:'wdth' 87, 'wght' 700;opacity:0.4;fill:#272727;fill-opacity:1;stroke:none;stroke-width:0.455055;stroke-linecap:square;stroke-dasharray:0.113764, 0.113764;stroke-dashoffset:0;stroke-opacity:1;paint-order:markers fill stroke"
     d="m 132.86582,111.18403 -41.319045,-81.510889 -7.63191,-0.702173 -25.91688,14.479715 30.16544,85.304327 7.08419,0.1876 z"
     id="path9369"
     sodipodi:nodetypes="ccccccc" />
  <path
     style="font-variation-settings:'wdth' 87, 'wght' 700;opacity:0.4;fill:#272727;fill-opacity:1;stroke:none;stroke-width:0.455055;stroke-linecap:square;stroke-dasharray:0.113764, 0.113764;stroke-dashoffset:0;stroke-opacity:1;paint-order:markers fill stroke"
     d="M 198.15977,87.610853 156.84072,6.0999689 149.20881,5.3977954 123.29193,19.877511 l 30.16544,85.304329 7.08419,0.1876 z"
     id="path9359"
     sodipodi:nodetypes="ccccccc" />
  <g
     id="g8963"
     transform="translate(-0.52916663,-3.7041668)">
    <path
       style="font-variation-settings:'wdth' 87, 'wght' 700;fill:#5e582c;fill-opacity:1;stroke:#000000;stroke-width:0.528457;stroke-linecap:square;stroke-dasharray:0.132115, 0.132115;stroke-dashoffset:0;stroke-opacity:1;paint-order:markers fill stroke"
       d="M 75.080836,157.55368 V 57.72791 H 23.872001 V 157.8179 l 8.511002,3.49591 z"
       id="path7784"
       sodipodi:nodetypes="cccccc" />
    <path
       style="font-variation-settings:'wdth' 87, 'wght' 700;fill:#7e743b;fill-opacity:1;stroke:#000000;stroke-width:0.528457;stroke-linecap:square;stroke-dasharray:0.132115, 0.132115;stroke-dashoffset:0;stroke-opacity:1;paint-order:markers fill stroke"
       d="M 83.699304,161.05234 V 61.226577 H 32.490469 V 161.31657 Z"
       id="path7782" />
    <path
       style="font-variation-settings:'wdth' 87, 'wght' 700;opacity:1;fill:#5e582c;fill-opacity:1;stroke:#000000;stroke-width:0.3;stroke-linecap:square;stroke-dasharray:0.0750003, 0.0750003;stroke-dashoffset:0;stroke-opacity:1;paint-order:markers fill stroke"
       d="m 23.656412,57.529764 8.933484,3.695001 51.16875,0.04677 -8.793169,-3.648228 z"
       id="path7874" />
  </g>
  <g
     id="g8971"
     transform="translate(64.016424,-28.77405)">
    <path
       style="font-variation-settings:'wdth' 87, 'wght' 700;fill:#5e582c;fill-opacity:1;stroke:#000000;stroke-width:0.528457;stroke-linecap:square;stroke-dasharray:0.132115, 0.132115;stroke-dashoffset:0;stroke-opacity:1;paint-order:markers fill stroke"
       d="M 75.080836,157.55368 V 57.72791 H 23.872001 V 157.8179 l 8.511002,3.49591 z"
       id="path8965"
       sodipodi:nodetypes="cccccc" />
    <path
       style="font-variation-settings:'wdth' 87, 'wght' 700;fill:#7e743b;fill-opacity:1;stroke:#000000;stroke-width:0.528457;stroke-linecap:square;stroke-dasharray:0.132115, 0.132115;stroke-dashoffset:0;stroke-opacity:1;paint-order:markers fill stroke"
       d="M 83.699304,161.05234 V 61.226577 H 32.490469 V 161.31657 Z"
       id="path8967" />
    <path
       style="font-variation-settings:'wdth' 87, 'wght' 700;opacity:1;fill:#5e582c;fill-opacity:1;stroke:#000000;stroke-width:0.3;stroke-linecap:square;stroke-dasharray:0.0750003, 0.0750003;stroke-dashoffset:0;stroke-opacity:1;paint-order:markers fill stroke"
       d="m 23.656412,57.529764 8.933484,3.695001 51.16875,0.04677 -8.793169,-3.648228 z"
       id="path8969" />
  </g>
  <g
     id="g9195"
     transform="translate(128.37492,-53.843932)">
    <path
       style="font-variation-settings:'wdth' 87, 'wght' 700;fill:#5e582c;fill-opacity:1;stroke:#000000;stroke-width:0.528457;stroke-linecap:square;stroke-dasharray:0.132115, 0.132115;stroke-dashoffset:0;stroke-opacity:1;paint-order:markers fill stroke"
       d="M 75.080836,157.55368 V 57.72791 H 23.872001 V 157.8179 l 8.511002,3.49591 z"
       id="path9189"
       sodipodi:nodetypes="cccccc" />
    <path
       style="font-variation-settings:'wdth' 87, 'wght' 700;fill:#7e743b;fill-opacity:1;stroke:#000000;stroke-width:0.528457;stroke-linecap:square;stroke-dasharray:0.132115, 0.132115;stroke-dashoffset:0;stroke-opacity:1;paint-order:markers fill stroke"
       d="M 83.699304,161.05234 V 61.226577 H 32.490469 V 161.31657 Z"
       id="path9191" />
    <path
       style="font-variation-settings:'wdth' 87, 'wght' 700;opacity:1;fill:#5e582c;fill-opacity:1;stroke:#000000;stroke-width:0.3;stroke-linecap:square;stroke-dasharray:0.0750003, 0.0750003;stroke-dashoffset:0;stroke-opacity:1;paint-order:markers fill stroke"
       d="m 23.656412,57.529764 8.933484,3.695001 51.16875,0.04677 -8.793169,-3.648228 z"
       id="path9193" />
  </g>
</svg>
