<?xml version="1.0" encoding="UTF-8" standalone="no"?>
<!-- Created with Inkscape (http://www.inkscape.org/) -->

<svg
   width="1000"
   height="600"
   viewBox="0 0 264.58333 158.75"
   version="1.1"
   id="svg5"
   inkscape:export-filename="Menu.png"
   inkscape:export-xdpi="96"
   inkscape:export-ydpi="96"
   inkscape:version="1.2.2 (732a01da63, 2022-12-09)"
   sodipodi:docname="Menu.svg"
   xmlns:inkscape="http://www.inkscape.org/namespaces/inkscape"
   xmlns:sodipodi="http://sodipodi.sourceforge.net/DTD/sodipodi-0.dtd"
   xmlns:xlink="http://www.w3.org/1999/xlink"
   xmlns="http://www.w3.org/2000/svg"
   xmlns:svg="http://www.w3.org/2000/svg">
  <sodipodi:namedview
     id="namedview7"
     pagecolor="#ffffff"
     bordercolor="#000000"
     borderopacity="0.25"
     inkscape:showpageshadow="2"
     inkscape:pageopacity="0.0"
     inkscape:pagecheckerboard="0"
     inkscape:deskcolor="#d1d1d1"
     inkscape:document-units="mm"
     showgrid="false"
     inkscape:lockguides="false"
     inkscape:zoom="0.5946522"
     inkscape:cx="598.66928"
     inkscape:cy="431.34458"
     inkscape:window-width="1920"
     inkscape:window-height="1001"
     inkscape:window-x="-9"
     inkscape:window-y="-9"
     inkscape:window-maximized="1"
     inkscape:current-layer="layer1" />
  <defs
     id="defs2">
    <linearGradient
       inkscape:collect="always"
       id="linearGradient4867">
      <stop
         style="stop-color:#5358f2;stop-opacity:1;"
         offset="0"
         id="stop4863" />
      <stop
         style="stop-color:#5358f2;stop-opacity:0;"
         offset="1"
         id="stop4865" />
    </linearGradient>
    <linearGradient
       inkscape:collect="always"
       id="linearGradient933">
      <stop
         style="stop-color:#192a44;stop-opacity:1;"
         offset="0"
         id="stop929" />
      <stop
         style="stop-color:#a05e5e;stop-opacity:0.85882354;"
         offset="0.54004103"
         id="stop937" />
      <stop
         style="stop-color:#192a44;stop-opacity:1;"
         offset="1"
         id="stop931" />
    </linearGradient>
    <linearGradient
       inkscape:collect="always"
       xlink:href="#linearGradient933"
       id="linearGradient935"
       x1="0"
       y1="300"
       x2="1000"
       y2="300"
       gradientUnits="userSpaceOnUse" />
    <linearGradient
       inkscape:collect="always"
       xlink:href="#linearGradient4867"
       id="linearGradient4869"
       x1="361.49567"
       y1="100.55597"
       x2="654.74261"
       y2="100.55597"
       gradientUnits="userSpaceOnUse" />
    <linearGradient
       inkscape:collect="always"
       xlink:href="#linearGradient933"
       id="linearGradient284"
       gradientUnits="userSpaceOnUse"
       x1="0"
       y1="300"
       x2="1000"
       y2="300"
       gradientTransform="matrix(0.26464868,0,0,0.26464868,0,-0.05783881)" />
  </defs>
  <g
     inkscape:label="Capa 1"
     inkscape:groupmode="layer"
     id="layer1"
     style="display:inline;fill:url(#linearGradient935);fill-opacity:1">
    <rect
       style="font-variation-settings:'wdth' 87, 'wght' 700;fill:url(#linearGradient284);fill-opacity:1;stroke-width:0.529298;stroke-linecap:square;stroke-linejoin:bevel;paint-order:markers fill stroke"
       id="rect788"
       width="264.64868"
       height="158.78922"
       x="0"
       y="-0.057838809" />
    <path
       style="font-variation-settings:'wdth' 87, 'wght' 700;fill:#9e2f0b;fill-opacity:1;stroke:none;stroke-width:0.929814;stroke-linecap:square;stroke-linejoin:bevel;stroke-opacity:1;paint-order:markers fill stroke"
       d="M 90.972396,19.985743 184.4488,19.652689 178.62035,36.275365 C 141.14159,37.399936 113.64843,29.291299 80.53417,24.785013 Z"
       id="path5287"
       sodipodi:nodetypes="ccccc" />
    <path
       style="font-variation-settings:'wdth' 87, 'wght' 700;fill:#9e2f0b;fill-opacity:1;stroke:none;stroke-width:0.518709;stroke-linecap:square;stroke-linejoin:bevel;stroke-opacity:1;paint-order:markers fill stroke"
       d="m 177.10128,12.514937 c 3.13194,10.88693 1.65203,21.354602 0,31.806625 L 191.6111,20.873164 Z"
       id="path5395"
       sodipodi:nodetypes="cccc" />
  </g>
  <text
     xml:space="preserve"
     style="font-size:45.0495px;line-height:1.25;font-family:Kimberley;-inkscape-font-specification:'Kimberley, @wght=700,wdth=87.0';font-variation-settings:'wdth' 87, 'wght' 700;fill:#5358f2;fill-opacity:1;stroke:#8690fc;stroke-width:2.82515;stroke-linecap:square;stroke-linejoin:bevel;stroke-opacity:1;paint-order:markers fill stroke"
     x="95.099747"
     y="44.123497"
     id="text4784"><tspan
       sodipodi:role="line"
       id="tspan4782"
       style="fill:#5358f2;fill-opacity:1;stroke:#8690fc;stroke-width:2.82515;stroke-opacity:1"
       x="95.099747"
       y="44.123497">Pila</tspan></text>
  <g
     inkscape:groupmode="layer"
     id="layer2"
     inkscape:label="boceto">
    <path
       style="font-variation-settings:'wdth' 87, 'wght' 700;fill:#ffffff;fill-opacity:0.193627;stroke:none;stroke-width:0.529298;stroke-linecap:square;stroke-linejoin:bevel;stroke-opacity:1;paint-order:markers fill stroke"
       d="M 0.02943806,158.64275 0.02081585,-0.07865466 23.896599,0.0254246 C 21.905303,10.762171 37.122196,39.923076 35.408821,40.708535 13.528558,50.73904 -23.827953,153.66926 35.790338,117.27668 c 2.187652,-1.3354 -17.341779,24.83935 -11.893739,41.44881 z"
       id="path5193"
       sodipodi:nodetypes="cccsscc" />
    <path
       style="font-variation-settings:'wdth' 87, 'wght' 700;fill:#ffffff;fill-opacity:0.193627;stroke:none;stroke-width:0.529298;stroke-linecap:square;stroke-linejoin:bevel;stroke-opacity:1;paint-order:markers fill stroke"
       d="M 264.60075,158.72183 264.60938,4.2446042e-4 240.73359,0.1045039 C 242.72489,10.84125 227.508,40.002153 229.22138,40.787612 c 21.88026,10.030505 59.23678,112.960738 -0.38152,76.568138 -2.18766,-1.3354 17.34178,24.83936 11.89373,41.44882 z"
       id="path5195"
       sodipodi:nodetypes="cccsscc" />
  </g>
  <g
     id="g5171"
     transform="matrix(-0.22557866,0,0,0.22557866,239.16688,40.4192)">
    <path
       style="font-variation-settings:'wdth' 87, 'wght' 700;fill:#9e9d03;fill-opacity:1;stroke:#858304;stroke-width:2;stroke-linecap:square;stroke-linejoin:bevel;stroke-opacity:1;paint-order:markers fill stroke"
       d="m 179.33263,285.04448 76.76694,-37.75423 c 26.81897,-2.29296 27.83642,8.31485 12.58475,27.05721 l -76.76695,38.38347 c -8.54481,-6.00147 -13.22988,-14.86662 -12.58474,-27.68645 z"
       id="path5163"
       sodipodi:nodetypes="ccccc" />
    <path
       style="font-variation-settings:'wdth' 87, 'wght' 700;fill:none;fill-opacity:1;stroke:#858304;stroke-width:2;stroke-linecap:square;stroke-linejoin:bevel;stroke-opacity:1;paint-order:markers fill stroke"
       d="m 255.72808,248.16414 c 0.91778,8.09105 4.76405,16.64147 13.23691,25.91763"
       id="path5165"
       sodipodi:nodetypes="cc" />
    <path
       style="font-variation-settings:'wdth' 87, 'wght' 700;fill:#ffffff;fill-opacity:0.514706;stroke:none;stroke-width:2;stroke-linecap:square;stroke-linejoin:bevel;stroke-opacity:1;paint-order:markers fill stroke"
       d="m 185.15307,291.88746 -2.35964,-4.87659 c 10.46751,-5.46046 5.00797,-3.35382 33.27092,-17.30404 -2.99678,2.72864 -32.01571,14.45668 -30.91128,22.18063 z"
       id="path5167"
       sodipodi:nodetypes="cccc" />
    <path
       style="font-variation-settings:'wdth' 87, 'wght' 700;fill:#ffffff;fill-opacity:0.514706;stroke:none;stroke-width:2.33263;stroke-linecap:square;stroke-linejoin:bevel;stroke-opacity:1;paint-order:markers fill stroke"
       d="m 258.45921,249.17796 c 0,0 6.4196,-1.33712 10.48537,0.0787 l 4.06574,1.41578 c -6.30788,-1.64106 -10.30464,-1.46986 -14.55111,-1.49448 z"
       id="path5169"
       sodipodi:nodetypes="cscc" />
  </g>
  <g
     id="g5181"
     transform="matrix(-0.22557866,0,0,0.22557866,241.37395,80.579242)">
    <path
       style="font-variation-settings:'wdth' 87, 'wght' 700;fill:#9e9d03;fill-opacity:1;stroke:#858304;stroke-width:2;stroke-linecap:square;stroke-linejoin:bevel;stroke-opacity:1;paint-order:markers fill stroke"
       d="m 179.33263,285.04448 76.76694,-37.75423 c 26.81897,-2.29296 27.83642,8.31485 12.58475,27.05721 l -76.76695,38.38347 c -8.54481,-6.00147 -13.22988,-14.86662 -12.58474,-27.68645 z"
       id="path5173"
       sodipodi:nodetypes="ccccc" />
    <path
       style="font-variation-settings:'wdth' 87, 'wght' 700;fill:none;fill-opacity:1;stroke:#858304;stroke-width:2;stroke-linecap:square;stroke-linejoin:bevel;stroke-opacity:1;paint-order:markers fill stroke"
       d="m 255.72808,248.16414 c 0.91778,8.09105 4.76405,16.64147 13.23691,25.91763"
       id="path5175"
       sodipodi:nodetypes="cc" />
    <path
       style="font-variation-settings:'wdth' 87, 'wght' 700;fill:#ffffff;fill-opacity:0.514706;stroke:none;stroke-width:2;stroke-linecap:square;stroke-linejoin:bevel;stroke-opacity:1;paint-order:markers fill stroke"
       d="m 185.15307,291.88746 -2.35964,-4.87659 c 10.46751,-5.46046 5.00797,-3.35382 33.27092,-17.30404 -2.99678,2.72864 -32.01571,14.45668 -30.91128,22.18063 z"
       id="path5177"
       sodipodi:nodetypes="cccc" />
    <path
       style="font-variation-settings:'wdth' 87, 'wght' 700;fill:#ffffff;fill-opacity:0.514706;stroke:none;stroke-width:2.33263;stroke-linecap:square;stroke-linejoin:bevel;stroke-opacity:1;paint-order:markers fill stroke"
       d="m 258.45921,249.17796 c 0,0 6.4196,-1.33712 10.48537,0.0787 l 4.06574,1.41578 c -6.30788,-1.64106 -10.30464,-1.46986 -14.55111,-1.49448 z"
       id="path5179"
       sodipodi:nodetypes="cscc" />
  </g>
  <g
     id="g5191"
     transform="matrix(-0.22557866,0,0,0.22557866,240.27674,1.0076328)">
    <path
       style="font-variation-settings:'wdth' 87, 'wght' 700;fill:#9e9d03;fill-opacity:1;stroke:#858304;stroke-width:2;stroke-linecap:square;stroke-linejoin:bevel;stroke-opacity:1;paint-order:markers fill stroke"
       d="m 179.33263,285.04448 76.76694,-37.75423 c 26.81897,-2.29296 27.83642,8.31485 12.58475,27.05721 l -76.76695,38.38347 c -8.54481,-6.00147 -13.22988,-14.86662 -12.58474,-27.68645 z"
       id="path5183"
       sodipodi:nodetypes="ccccc" />
    <path
       style="font-variation-settings:'wdth' 87, 'wght' 700;fill:none;fill-opacity:1;stroke:#858304;stroke-width:2;stroke-linecap:square;stroke-linejoin:bevel;stroke-opacity:1;paint-order:markers fill stroke"
       d="m 255.72808,248.16414 c 0.91778,8.09105 4.76405,16.64147 13.23691,25.91763"
       id="path5185"
       sodipodi:nodetypes="cc" />
    <path
       style="font-variation-settings:'wdth' 87, 'wght' 700;fill:#ffffff;fill-opacity:0.514706;stroke:none;stroke-width:2;stroke-linecap:square;stroke-linejoin:bevel;stroke-opacity:1;paint-order:markers fill stroke"
       d="m 185.15307,291.88746 -2.35964,-4.87659 c 10.46751,-5.46046 5.00797,-3.35382 33.27092,-17.30404 -2.99678,2.72864 -32.01571,14.45668 -30.91128,22.18063 z"
       id="path5187"
       sodipodi:nodetypes="cccc" />
    <path
       style="font-variation-settings:'wdth' 87, 'wght' 700;fill:#ffffff;fill-opacity:0.514706;stroke:none;stroke-width:2.33263;stroke-linecap:square;stroke-linejoin:bevel;stroke-opacity:1;paint-order:markers fill stroke"
       d="m 258.45921,249.17796 c 0,0 6.4196,-1.33712 10.48537,0.0787 l 4.06574,1.41578 c -6.30788,-1.64106 -10.30464,-1.46986 -14.55111,-1.49448 z"
       id="path5189"
       sodipodi:nodetypes="cscc" />
  </g>
  <g
     id="g5211"
     transform="matrix(0.22557866,0,0,0.22557866,32.178325,40.086148)">
    <path
       style="font-variation-settings:'wdth' 87, 'wght' 700;fill:#9e9d03;fill-opacity:1;stroke:#858304;stroke-width:2;stroke-linecap:square;stroke-linejoin:bevel;stroke-opacity:1;paint-order:markers fill stroke"
       d="m 179.33263,285.04448 76.76694,-37.75423 c 26.81897,-2.29296 27.83642,8.31485 12.58475,27.05721 l -76.76695,38.38347 c -8.54481,-6.00147 -13.22988,-14.86662 -12.58474,-27.68645 z"
       id="path5203"
       sodipodi:nodetypes="ccccc" />
    <path
       style="font-variation-settings:'wdth' 87, 'wght' 700;fill:none;fill-opacity:1;stroke:#858304;stroke-width:2;stroke-linecap:square;stroke-linejoin:bevel;stroke-opacity:1;paint-order:markers fill stroke"
       d="m 255.72808,248.16414 c 0.91778,8.09105 4.76405,16.64147 13.23691,25.91763"
       id="path5205"
       sodipodi:nodetypes="cc" />
    <path
       style="font-variation-settings:'wdth' 87, 'wght' 700;fill:#ffffff;fill-opacity:0.514706;stroke:none;stroke-width:2;stroke-linecap:square;stroke-linejoin:bevel;stroke-opacity:1;paint-order:markers fill stroke"
       d="m 185.15307,291.88746 -2.35964,-4.87659 c 10.46751,-5.46046 5.00797,-3.35382 33.27092,-17.30404 -2.99678,2.72864 -32.01571,14.45668 -30.91128,22.18063 z"
       id="path5207"
       sodipodi:nodetypes="cccc" />
    <path
       style="font-variation-settings:'wdth' 87, 'wght' 700;fill:#ffffff;fill-opacity:0.514706;stroke:none;stroke-width:2.33263;stroke-linecap:square;stroke-linejoin:bevel;stroke-opacity:1;paint-order:markers fill stroke"
       d="m 258.45921,249.17796 c 0,0 6.4196,-1.33712 10.48537,0.0787 l 4.06574,1.41578 c -6.30788,-1.64106 -10.30464,-1.46986 -14.55111,-1.49448 z"
       id="path5209"
       sodipodi:nodetypes="cscc" />
  </g>
  <g
     id="g5221"
     transform="matrix(0.22557866,0,0,0.22557866,29.971259,80.24619)">
    <path
       style="font-variation-settings:'wdth' 87, 'wght' 700;fill:#9e9d03;fill-opacity:1;stroke:#858304;stroke-width:2;stroke-linecap:square;stroke-linejoin:bevel;stroke-opacity:1;paint-order:markers fill stroke"
       d="m 179.33263,285.04448 76.76694,-37.75423 c 26.81897,-2.29296 27.83642,8.31485 12.58475,27.05721 l -76.76695,38.38347 c -8.54481,-6.00147 -13.22988,-14.86662 -12.58474,-27.68645 z"
       id="path5213"
       sodipodi:nodetypes="ccccc" />
    <path
       style="font-variation-settings:'wdth' 87, 'wght' 700;fill:none;fill-opacity:1;stroke:#858304;stroke-width:2;stroke-linecap:square;stroke-linejoin:bevel;stroke-opacity:1;paint-order:markers fill stroke"
       d="m 255.72808,248.16414 c 0.91778,8.09105 4.76405,16.64147 13.23691,25.91763"
       id="path5215"
       sodipodi:nodetypes="cc" />
    <path
       style="font-variation-settings:'wdth' 87, 'wght' 700;fill:#ffffff;fill-opacity:0.514706;stroke:none;stroke-width:2;stroke-linecap:square;stroke-linejoin:bevel;stroke-opacity:1;paint-order:markers fill stroke"
       d="m 185.15307,291.88746 -2.35964,-4.87659 c 10.46751,-5.46046 5.00797,-3.35382 33.27092,-17.30404 -2.99678,2.72864 -32.01571,14.45668 -30.91128,22.18063 z"
       id="path5217"
       sodipodi:nodetypes="cccc" />
    <path
       style="font-variation-settings:'wdth' 87, 'wght' 700;fill:#ffffff;fill-opacity:0.514706;stroke:none;stroke-width:2.33263;stroke-linecap:square;stroke-linejoin:bevel;stroke-opacity:1;paint-order:markers fill stroke"
       d="m 258.45921,249.17796 c 0,0 6.4196,-1.33712 10.48537,0.0787 l 4.06574,1.41578 c -6.30788,-1.64106 -10.30464,-1.46986 -14.55111,-1.49448 z"
       id="path5219"
       sodipodi:nodetypes="cscc" />
  </g>
  <g
     id="g5231"
     transform="matrix(0.22557866,0,0,0.22557866,31.068468,0.67457912)">
    <path
       style="font-variation-settings:'wdth' 87, 'wght' 700;fill:#9e9d03;fill-opacity:1;stroke:#858304;stroke-width:2;stroke-linecap:square;stroke-linejoin:bevel;stroke-opacity:1;paint-order:markers fill stroke"
       d="m 179.33263,285.04448 76.76694,-37.75423 c 26.81897,-2.29296 27.83642,8.31485 12.58475,27.05721 l -76.76695,38.38347 c -8.54481,-6.00147 -13.22988,-14.86662 -12.58474,-27.68645 z"
       id="path5223"
       sodipodi:nodetypes="ccccc" />
    <path
       style="font-variation-settings:'wdth' 87, 'wght' 700;fill:none;fill-opacity:1;stroke:#858304;stroke-width:2;stroke-linecap:square;stroke-linejoin:bevel;stroke-opacity:1;paint-order:markers fill stroke"
       d="m 255.72808,248.16414 c 0.91778,8.09105 4.76405,16.64147 13.23691,25.91763"
       id="path5225"
       sodipodi:nodetypes="cc" />
    <path
       style="font-variation-settings:'wdth' 87, 'wght' 700;fill:#ffffff;fill-opacity:0.514706;stroke:none;stroke-width:2;stroke-linecap:square;stroke-linejoin:bevel;stroke-opacity:1;paint-order:markers fill stroke"
       d="m 185.15307,291.88746 -2.35964,-4.87659 c 10.46751,-5.46046 5.00797,-3.35382 33.27092,-17.30404 -2.99678,2.72864 -32.01571,14.45668 -30.91128,22.18063 z"
       id="path5227"
       sodipodi:nodetypes="cccc" />
    <path
       style="font-variation-settings:'wdth' 87, 'wght' 700;fill:#ffffff;fill-opacity:0.514706;stroke:none;stroke-width:2.33263;stroke-linecap:square;stroke-linejoin:bevel;stroke-opacity:1;paint-order:markers fill stroke"
       d="m 258.45921,249.17796 c 0,0 6.4196,-1.33712 10.48537,0.0787 l 4.06574,1.41578 c -6.30788,-1.64106 -10.30464,-1.46986 -14.55111,-1.49448 z"
       id="path5229"
       sodipodi:nodetypes="cscc" />
  </g>
</svg>
