<?xml version="1.0" encoding="UTF-8" standalone="no"?>
<!-- Created with Inkscape (http://www.inkscape.org/) -->

<svg
   width="1600"
   height="800"
   viewBox="0 0 423.33333 211.66667"
   version="1.1"
   id="svg5"
   inkscape:version="1.2.2 (732a01da63, 2022-12-09)"
   sodipodi:docname="Instrucciones.svg"
   inkscape:export-filename="Instrucciones.png"
   inkscape:export-xdpi="96"
   inkscape:export-ydpi="96"
   xmlns:inkscape="http://www.inkscape.org/namespaces/inkscape"
   xmlns:sodipodi="http://sodipodi.sourceforge.net/DTD/sodipodi-0.dtd"
   xmlns="http://www.w3.org/2000/svg"
   xmlns:svg="http://www.w3.org/2000/svg">
  <sodipodi:namedview
     id="namedview7"
     pagecolor="#ffffff"
     bordercolor="#000000"
     borderopacity="0.25"
     inkscape:showpageshadow="2"
     inkscape:pageopacity="0.0"
     inkscape:pagecheckerboard="0"
     inkscape:deskcolor="#d1d1d1"
     inkscape:document-units="mm"
     showgrid="false"
     inkscape:zoom="0.5"
     inkscape:cx="1126"
     inkscape:cy="561"
     inkscape:window-width="1920"
     inkscape:window-height="1001"
     inkscape:window-x="-9"
     inkscape:window-y="-9"
     inkscape:window-maximized="1"
     inkscape:current-layer="layer7"
     showguides="true" />
  <defs
     id="defs2">
    <rect
       x="223.44574"
       y="288.49957"
       width="1139.8561"
       height="335.16861"
       id="rect11433" />
    <rect
       x="240.4163"
       y="197.9899"
       width="741.86198"
       height="142.37346"
       id="rect11275" />
    <rect
       x="257.75051"
       y="172.93033"
       width="1084.3382"
       height="437.35057"
       id="rect11267" />
  </defs>
  <g
     inkscape:groupmode="layer"
     id="layer5"
     inkscape:label="Fondo"
     style="display:inline"
     sodipodi:insensitive="true">
    <path
       style="font-variation-settings:'wdth' 87, 'wght' 700;opacity:1;fill:#7c7b74;fill-opacity:1;stroke:none;stroke-width:1;stroke-linecap:square;stroke-dasharray:0.250001, 0.250001;stroke-dashoffset:0;stroke-opacity:1;paint-order:markers fill stroke"
       d="M 60.485435,211.69902 423.35846,68.610823 V 211.77768 Z"
       id="path7640" />
    <path
       style="font-variation-settings:'wdth' 87, 'wght' 700;fill:#7c7b74;fill-opacity:1;stroke:none;stroke-width:1;stroke-linecap:square;stroke-dasharray:0.250001, 0.250001;stroke-dashoffset:0;stroke-opacity:1;paint-order:markers fill stroke"
       d="M 0,190.65786 V 0 h 423.33333 l 0.19347,24.122326"
       id="path7698"
       sodipodi:nodetypes="cccc" />
    <path
       style="font-variation-settings:'wdth' 87, 'wght' 700;opacity:1;fill:#51504c;fill-opacity:1;stroke:#0c0c0c;stroke-width:1;stroke-linecap:square;stroke-dasharray:0.250001, 0.250001;stroke-dashoffset:0;stroke-opacity:1;paint-order:markers fill stroke"
       d="m 0,190.65786 v 21.0088 l 60.485435,0.0324 362.873025,-143.088197 0.16833,-44.488497 z"
       id="path7724" />
    <path
       style="font-variation-settings:'wdth' 87, 'wght' 700;opacity:1;fill:none;fill-opacity:1;stroke:#f4ff1e;stroke-width:1.8;stroke-linecap:butt;stroke-dasharray:7.2, 1.8;stroke-dashoffset:0;stroke-opacity:1;paint-order:markers fill stroke"
       d="M 11.759992,208.32597 420.15831,46.566665"
       id="path9478" />
  </g>
  <g
     inkscape:label="bocetos"
     inkscape:groupmode="layer"
     id="layer1"
     style="display:none">
    <path
       style="font-variation-settings:'wdth' 87, 'wght' 700;opacity:1;fill:#baa136;stroke:#861703;stroke-width:0.528457;stroke-linecap:round;stroke-dasharray:0.132115, 0.132115;stroke-dashoffset:0;stroke-opacity:1;paint-order:markers fill stroke"
       d="M 1.2685954,161.56288 H 423.24267"
       id="path236" />
    <path
       style="font-variation-settings:'wdth' 87, 'wght' 700;fill:none;stroke:#a01a1a;stroke-width:0.0546809;stroke-linecap:round;stroke-dasharray:0.0136702, 0.0136702;stroke-opacity:1;paint-order:markers fill stroke"
       d="M 23.789387,60.875113 178.47962,0.02270377"
       id="path361" />
    <path
       style="font-variation-settings:'wdth' 87, 'wght' 700;fill:none;stroke:#a01a1a;stroke-width:0.054839;stroke-linecap:round;stroke-dasharray:0.0137098, 0.0137098;stroke-opacity:1;paint-order:markers fill stroke"
       d="M 75.048009,61.051317 230.18616,0.02270377"
       id="path527" />
    <path
       style="font-variation-settings:'wdth' 87, 'wght' 700;fill:none;stroke:#000000;stroke-width:0.528457;stroke-linecap:round;stroke-dasharray:0.132115, 0.132115;stroke-dashoffset:0;stroke-opacity:1;paint-order:markers fill stroke"
       d="M 0.8817496,190.38341 423.5268,24.122326"
       id="path529" />
    <path
       style="font-variation-settings:'wdth' 87, 'wght' 700;fill:none;fill-opacity:1;stroke:#000000;stroke-width:0.528457;stroke-linecap:square;stroke-dasharray:0.132115, 0.132115;stroke-dashoffset:0;stroke-opacity:1;paint-order:markers fill stroke"
       d="M 32.336502,157.53439 V 57.708617 H 83.545337 V 157.79861 Z"
       id="path1204" />
    <path
       style="font-variation-settings:'wdth' 87, 'wght' 700;fill:none;fill-opacity:1;stroke:#000000;stroke-width:0.528457;stroke-linecap:square;stroke-dasharray:0.132115, 0.132115;stroke-dashoffset:0;stroke-opacity:1;paint-order:markers fill stroke"
       d="M 96.769235,132.18769 V 32.361918 H 147.97807 V 132.45191 Z"
       id="path1206" />
    <path
       style="font-variation-settings:'wdth' 87, 'wght' 700;fill:none;fill-opacity:1;stroke:#000000;stroke-width:0.528457;stroke-linecap:square;stroke-dasharray:0.132115, 0.132115;stroke-dashoffset:0;stroke-opacity:1;paint-order:markers fill stroke"
       d="M 160.71683,107.08158 V 7.2558146 h 51.20883 V 107.34582 Z"
       id="path1208" />
    <path
       style="font-variation-settings:'wdth' 87, 'wght' 700;fill:none;stroke:#000000;stroke-width:0.454186;stroke-linecap:round;stroke-dasharray:0.113546, 0.113546;stroke-dashoffset:0;stroke-opacity:1;paint-order:markers fill stroke"
       d="M 60.330768,211.17844 423.57362,68.285132"
       id="path1210" />
  </g>
  <g
     inkscape:groupmode="layer"
     id="layer3"
     inkscape:label="Formas"
     style="display:inline"
     sodipodi:insensitive="true">
    <path
       style="font-variation-settings:'wdth' 87, 'wght' 700;opacity:0.4;fill:#272727;fill-opacity:1;stroke:none;stroke-width:0.446458;stroke-linecap:square;stroke-dasharray:0.111615, 0.111615;stroke-dashoffset:0;stroke-opacity:1;paint-order:markers fill stroke"
       d="m 68.196489,136.91319 -41.319045,-78.460059 -7.63191,-0.675892 -19.368776,12.497074 -0.111461,18.992483 23.728797,64.559724 7.08419,0.18058 z"
       id="path9371"
       sodipodi:nodetypes="cccccccc" />
    <path
       style="font-variation-settings:'wdth' 87, 'wght' 700;opacity:0.398;fill:#171209;fill-opacity:1;stroke:none;stroke-width:0.453033;stroke-linecap:square;stroke-dasharray:0.113259, 0.113259;stroke-dashoffset:0;stroke-opacity:1;paint-order:markers fill stroke"
       d="m 407.16853,158.41055 -4.86258,1.59331 -57.02692,1.76177 c 9.72502,-2.9888 -21.08734,-14.63461 -12.88449,-17.33577 5.6824,-2.45641 10.97122,1.04072 15.02729,-6.68725 0,0 4.58492,-4.62755 6.37577,-4.60838 1.79088,0.0192 6.24482,-5.54794 13.63284,-7.28633 7.38802,-1.7384 16.74477,-7.92401 18.18606,-8.4496 2.73096,-0.99589 3.00482,-3.81722 3.33259,-4.44622 0.3777,-0.72485 13.83277,-7.22132 13.83277,-7.22132 z"
       id="path9373"
       sodipodi:nodetypes="cccccsssscc" />
    <g
       id="g9201"
       transform="translate(88.593952,95.093411)"
       style="display:inline">
      <path
         style="font-variation-settings:'wdth' 87, 'wght' 700;fill:#52461a;fill-opacity:1;stroke:#000000;stroke-width:0.528457;stroke-linecap:square;stroke-dasharray:0.132115, 0.132115;stroke-dashoffset:0;stroke-opacity:1;paint-order:markers fill stroke"
         d="m 318.5237,62.849781 -5.17289,3.526963 H 239.1671 V 53.797256 l 3.52695,-3.174265 c 0,0 10.34574,4.232352 12.81461,3.762085 2.46888,-0.470261 2.70401,-0.58782 2.70401,-0.58782 0,0 0.17105,-3.413014 2.75747,-4.823801 2.58646,-1.410785 1.59245,-1.759858 5.47213,-7.167867 3.87963,-5.407999 3.8596,-6.24034 6.53019,-5.772721 2.67059,0.46761 2.85763,0.311736 2.85763,0.311736 0,0 0.59233,-1.215792 2.82645,-1.963974 2.23417,-0.748181 2.31731,-0.498789 10.5473,-5.237266 8.22998,-4.738481 10.47452,-6.650497 12.55281,-6.650497 2.07829,0 16.37685,-0.831313 16.37685,-0.831313 z"
         id="path9197"
         sodipodi:nodetypes="cccccscssscssscc" />
      <path
         style="font-variation-settings:'wdth' 87, 'wght' 700;fill:#786624;fill-opacity:1;stroke:#000000;stroke-width:0.385215;stroke-linecap:square;stroke-dasharray:0.096305, 0.096305;stroke-dashoffset:0;stroke-opacity:1;paint-order:markers fill stroke"
         d="M 309.26074,66.208342 H 239.24912 V 53.651916 c 0,0 8.13472,7.04785 14.93082,6.86738 3.40887,-0.09053 3.65848,-10.37335 6.07265,-11.346827 2.41421,-0.973485 7.19721,-10.637666 10.09424,-12.584622 2.89705,-1.946954 7.07017,2.161106 12.98738,0.671669 10.16129,-2.55772 17.09374,-13.944868 17.57355,-13.807817 2.22802,0.636401 10.49754,1.035885 12.25584,0.629972 0.34022,-0.07854 4.52214,-2.048048 4.92313,-2.326574 0.24436,-0.169732 -4.72187,2.350296 -4.72187,2.350296 v 42.102949 z"
         id="path9199"
         sodipodi:nodetypes="cccsssssssccc" />
    </g>
    <path
       style="font-variation-settings:'wdth' 87, 'wght' 700;opacity:0.398;fill:#171209;fill-opacity:1;stroke:none;stroke-width:0.453033;stroke-linecap:square;stroke-dasharray:0.113259, 0.113259;stroke-dashoffset:0;stroke-opacity:1;paint-order:markers fill stroke"
       d="m 240.21891,59.911119 4.86258,1.593311 57.02692,1.761769 C 292.38339,60.277401 285.09575,35.402425 276.8929,32.701261 271.21847,29.719018 262.2882,25.372443 258.16144,22.30984 c 0,0 -0.88075,-0.92338 -2.6716,-0.90421 -1.79088,0.01919 -1.7469,0.272893 -9.13492,-1.465497 -7.38802,-1.738396 -9.65019,-2.778019 -11.03842,-2.125049 -1.38824,0.65297 -11.27093,4.386759 -11.27093,4.386759 z"
       id="path9361"
       sodipodi:nodetypes="cccccssscc" />
    <g
       id="g8958"
       transform="matrix(-1,0,0,1,558.47069,-2.7979914)"
       style="display:inline">
      <path
         style="font-variation-settings:'wdth' 87, 'wght' 700;fill:#52461a;fill-opacity:1;stroke:#000000;stroke-width:0.528457;stroke-linecap:square;stroke-dasharray:0.132115, 0.132115;stroke-dashoffset:0;stroke-opacity:1;paint-order:markers fill stroke"
         d="m 318.5237,62.849781 -5.17289,3.526963 H 239.1671 V 53.797256 l 3.52695,-3.174265 c 0,0 10.34574,4.232352 12.81461,3.762085 2.46888,-0.470261 2.70401,-0.58782 2.70401,-0.58782 0,0 0.17105,-3.413014 2.75747,-4.823801 2.58646,-1.410785 1.59245,-1.759858 5.47213,-7.167867 3.87963,-5.407999 3.8596,-6.24034 6.53019,-5.772721 2.67059,0.46761 2.85763,0.311736 2.85763,0.311736 0,0 0.59233,-1.215792 2.82645,-1.963974 2.23417,-0.748181 2.31731,-0.498789 10.5473,-5.237266 8.22998,-4.738481 10.47452,-6.650497 12.55281,-6.650497 2.07829,0 16.37685,-0.831313 16.37685,-0.831313 z"
         id="path4964-2"
         sodipodi:nodetypes="cccccscssscssscc" />
      <path
         style="font-variation-settings:'wdth' 87, 'wght' 700;fill:#786624;fill-opacity:1;stroke:#000000;stroke-width:0.385215;stroke-linecap:square;stroke-dasharray:0.096305, 0.096305;stroke-dashoffset:0;stroke-opacity:1;paint-order:markers fill stroke"
         d="M 309.26074,66.208342 H 239.24912 V 53.651916 c 0,0 8.13472,7.04785 14.93082,6.86738 3.40887,-0.09053 3.65848,-10.37335 6.07265,-11.346827 2.41421,-0.973485 7.19721,-10.637666 10.09424,-12.584622 2.89705,-1.946954 7.07017,2.161106 12.98738,0.671669 10.16129,-2.55772 17.09374,-13.944868 17.57355,-13.807817 2.22802,0.636401 10.49754,1.035885 12.25584,0.629972 0.34022,-0.07854 4.52214,-2.048048 4.92313,-2.326574 0.24436,-0.169732 -4.72187,2.350296 -4.72187,2.350296 v 42.102949 z"
         id="path3888-8"
         sodipodi:nodetypes="cccsssssssccc" />
    </g>
    <path
       style="font-variation-settings:'wdth' 87, 'wght' 700;opacity:0.4;fill:#272727;fill-opacity:1;stroke:none;stroke-width:0.450777;stroke-linecap:square;stroke-dasharray:0.112694, 0.112694;stroke-dashoffset:0;stroke-opacity:1;paint-order:markers fill stroke"
       d="m 132.55499,111.69807 -41.319044,-79.985478 -7.63191,-0.689032 -25.91688,14.208739 30.16544,83.707921 7.08419,0.18409 z"
       id="path9369"
       sodipodi:nodetypes="ccccccc" />
    <path
       style="font-variation-settings:'wdth' 87, 'wght' 700;opacity:0.4;fill:#272727;fill-opacity:1;stroke:none;stroke-width:0.455055;stroke-linecap:square;stroke-dasharray:0.113764, 0.113764;stroke-dashoffset:0;stroke-opacity:1;paint-order:markers fill stroke"
       d="M 197.84894,87.792558 156.52989,6.281674 148.89798,5.5795 122.9811,20.059216 l 30.16544,85.304324 7.08419,0.1876 z"
       id="path9359"
       sodipodi:nodetypes="ccccccc" />
    <g
       id="g8963"
       transform="translate(-0.839996,-3.5224619)">
      <path
         style="font-variation-settings:'wdth' 87, 'wght' 700;fill:#5e582c;fill-opacity:1;stroke:#000000;stroke-width:0.528457;stroke-linecap:square;stroke-dasharray:0.132115, 0.132115;stroke-dashoffset:0;stroke-opacity:1;paint-order:markers fill stroke"
         d="M 75.080836,157.55368 V 57.72791 H 23.872001 V 157.8179 l 8.511002,3.49591 z"
         id="path7784"
         sodipodi:nodetypes="cccccc" />
      <path
         style="font-variation-settings:'wdth' 87, 'wght' 700;fill:#7e743b;fill-opacity:1;stroke:#000000;stroke-width:0.528457;stroke-linecap:square;stroke-dasharray:0.132115, 0.132115;stroke-dashoffset:0;stroke-opacity:1;paint-order:markers fill stroke"
         d="M 83.699304,161.05234 V 61.226577 H 32.490469 V 161.31657 Z"
         id="path7782" />
      <path
         style="font-variation-settings:'wdth' 87, 'wght' 700;opacity:1;fill:#5e582c;fill-opacity:1;stroke:#000000;stroke-width:0.3;stroke-linecap:square;stroke-dasharray:0.0750003, 0.0750003;stroke-dashoffset:0;stroke-opacity:1;paint-order:markers fill stroke"
         d="m 23.656412,57.529764 8.933484,3.695001 51.16875,0.04677 -8.793169,-3.648228 z"
         id="path7874" />
    </g>
    <g
       id="g8971"
       transform="translate(63.705595,-28.592345)">
      <path
         style="font-variation-settings:'wdth' 87, 'wght' 700;fill:#5e582c;fill-opacity:1;stroke:#000000;stroke-width:0.528457;stroke-linecap:square;stroke-dasharray:0.132115, 0.132115;stroke-dashoffset:0;stroke-opacity:1;paint-order:markers fill stroke"
         d="M 75.080836,157.55368 V 57.72791 H 23.872001 V 157.8179 l 8.511002,3.49591 z"
         id="path8965"
         sodipodi:nodetypes="cccccc" />
      <path
         style="font-variation-settings:'wdth' 87, 'wght' 700;fill:#7e743b;fill-opacity:1;stroke:#000000;stroke-width:0.528457;stroke-linecap:square;stroke-dasharray:0.132115, 0.132115;stroke-dashoffset:0;stroke-opacity:1;paint-order:markers fill stroke"
         d="M 83.699304,161.05234 V 61.226577 H 32.490469 V 161.31657 Z"
         id="path8967" />
      <path
         style="font-variation-settings:'wdth' 87, 'wght' 700;opacity:1;fill:#5e582c;fill-opacity:1;stroke:#000000;stroke-width:0.3;stroke-linecap:square;stroke-dasharray:0.0750003, 0.0750003;stroke-dashoffset:0;stroke-opacity:1;paint-order:markers fill stroke"
         d="m 23.656412,57.529764 8.933484,3.695001 51.16875,0.04677 -8.793169,-3.648228 z"
         id="path8969" />
    </g>
    <g
       id="g9195"
       transform="translate(128.06409,-53.662227)">
      <path
         style="font-variation-settings:'wdth' 87, 'wght' 700;fill:#5e582c;fill-opacity:1;stroke:#000000;stroke-width:0.528457;stroke-linecap:square;stroke-dasharray:0.132115, 0.132115;stroke-dashoffset:0;stroke-opacity:1;paint-order:markers fill stroke"
         d="M 75.080836,157.55368 V 57.72791 H 23.872001 V 157.8179 l 8.511002,3.49591 z"
         id="path9189"
         sodipodi:nodetypes="cccccc" />
      <path
         style="font-variation-settings:'wdth' 87, 'wght' 700;fill:#7e743b;fill-opacity:1;stroke:#000000;stroke-width:0.528457;stroke-linecap:square;stroke-dasharray:0.132115, 0.132115;stroke-dashoffset:0;stroke-opacity:1;paint-order:markers fill stroke"
         d="M 83.699304,161.05234 V 61.226577 H 32.490469 V 161.31657 Z"
         id="path9191" />
      <path
         style="font-variation-settings:'wdth' 87, 'wght' 700;opacity:1;fill:#5e582c;fill-opacity:1;stroke:#000000;stroke-width:0.3;stroke-linecap:square;stroke-dasharray:0.0750003, 0.0750003;stroke-dashoffset:0;stroke-opacity:1;paint-order:markers fill stroke"
         d="m 23.656412,57.529764 8.933484,3.695001 51.16875,0.04677 -8.793169,-3.648228 z"
         id="path9193" />
    </g>
  </g>
  <g
     inkscape:groupmode="layer"
     id="layer7"
     inkscape:label="Texto">
    <rect
       style="font-variation-settings:'wdth' 87, 'wght' 700;opacity:1;fill:#2c2ff4;fill-opacity:0.307959;stroke:#000000;stroke-width:2.23619;stroke-linecap:square;stroke-linejoin:bevel;stroke-dasharray:none;stroke-dashoffset:0;stroke-opacity:1;paint-order:markers fill stroke"
       id="rect11180"
       width="320.46823"
       height="140.98929"
       x="51.432552"
       y="35.338688"
       sodipodi:insensitive="true" />
    <text
       xml:space="preserve"
       transform="scale(0.26458333)"
       id="text11265"
       style="fill:#2c2ff4;line-height:1.25;stroke-width:7.55905512;paint-order:markers fill stroke;-inkscape-font-specification:'Bahnschrift, @wght=700,wdth=87.0';font-family:Bahnschrift;font-size:120.53593445px;stroke-linecap:square;stroke-dasharray:none;font-variation-settings:'wght' 700, 'wdth' 87;stroke:#000000;stroke-opacity:1;fill-opacity:0.30795851;stroke-dashoffset:0;opacity:1;stroke-linejoin:bevel;white-space:pre;shape-inside:url(#rect11267)" />
    <text
       xml:space="preserve"
       transform="matrix(0.17709048,0,0,0.18465855,97.94141,7.7608244)"
       id="text11273"
       style="font-style:normal;font-variant:normal;font-weight:normal;font-stretch:normal;font-size:120.536px;line-height:1.25;font-family:Kimberley;-inkscape-font-specification:'Kimberley, @wght=700,wdth=87.0';font-variant-ligatures:normal;font-variant-caps:normal;font-variant-numeric:normal;font-variant-east-asian:normal;font-variation-settings:'wdth' 87, 'wght' 700;white-space:pre;shape-inside:url(#rect11275);opacity:1;fill:#010218;fill-opacity:1;stroke:none;stroke-width:7.55906;stroke-linecap:square;stroke-linejoin:bevel;stroke-dasharray:none;stroke-dashoffset:0;stroke-opacity:1;paint-order:markers fill stroke"><tspan
         x="240.41602"
         y="308.76282"
         id="tspan11534">Instruciones</tspan></text>
    <text
       xml:space="preserve"
       transform="scale(0.26458333)"
       id="text11431"
       style="fill:#010218;line-height:1.25;stroke-width:7.55905512;paint-order:markers fill stroke;-inkscape-font-specification:'Kimberley, @wght=700,wdth=87.0';font-family:Kimberley;font-size:120.53600311px;stroke-linecap:square;stroke-dasharray:none;font-variation-settings:'wght' 700, 'wdth' 87;stroke:none;stroke-opacity:1;fill-opacity:1;stroke-dashoffset:0;opacity:1;stroke-linejoin:bevel;font-weight:normal;font-style:normal;font-stretch:normal;font-variant:normal;font-variant-ligatures:normal;font-variant-caps:normal;font-variant-numeric:normal;font-variant-east-asian:normal;white-space:pre;shape-inside:url(#rect11433)" />
    <text
       xml:space="preserve"
       style="font-style:normal;font-variant:normal;font-weight:normal;font-stretch:normal;font-size:5.80452px;line-height:1.25;font-family:Kimberley;-inkscape-font-specification:'Kimberley, @wght=700,wdth=87.0';font-variant-ligatures:normal;font-variant-caps:normal;font-variant-numeric:normal;font-variant-east-asian:normal;font-variation-settings:'wdth' 87, 'wght' 700;opacity:1;fill:#010218;fill-opacity:1;stroke:none;stroke-width:0.364013;stroke-linecap:square;stroke-linejoin:bevel;stroke-dasharray:none;stroke-dashoffset:0;stroke-opacity:1;paint-order:markers fill stroke"
       x="70.182556"
       y="77.757713"
       id="text11439"
       transform="scale(0.98856968,1.0115625)"><tspan
         sodipodi:role="line"
         id="tspan11437"
         style="stroke-width:0.364013"
         x="70.182556"
         y="77.757713">¿Cómo jugar?</tspan><tspan
         sodipodi:role="line"
         style="stroke-width:0.364013"
         x="70.182556"
         y="85.013359"
         id="tspan11441"></tspan><tspan
         sodipodi:role="line"
         style="stroke-width:0.364013"
         x="70.182556"
         y="92.269012"
         id="tspan11443">El juego consiste en un personaje atrapado en un laberinto que </tspan><tspan
         sodipodi:role="line"
         style="stroke-width:0.364013"
         x="70.182556"
         y="99.524651"
         id="tspan11445">tiene como mision recolectar balas para derrotar a sus enemigos.</tspan><tspan
         sodipodi:role="line"
         style="stroke-width:0.364013"
         x="70.182556"
         y="106.7803"
         id="tspan11447"></tspan><tspan
         sodipodi:role="line"
         style="stroke-width:0.364013"
         x="70.182556"
         y="114.03595"
         id="tspan11449">Moverse:</tspan><tspan
         sodipodi:role="line"
         style="stroke-width:0.364013"
         x="70.182556"
         y="121.2916"
         id="tspan11451">W: abrriba</tspan><tspan
         sodipodi:role="line"
         style="stroke-width:0.364013"
         x="70.182556"
         y="128.54724"
         id="tspan11453">S: abajo</tspan><tspan
         sodipodi:role="line"
         style="stroke-width:0.364013"
         x="70.182556"
         y="135.80289"
         id="tspan11455">A: izquierda</tspan><tspan
         sodipodi:role="line"
         style="stroke-width:0.364013"
         x="70.182556"
         y="143.05855"
         id="tspan11457">D: derecha</tspan><tspan
         sodipodi:role="line"
         style="stroke-width:0.364013"
         x="70.182556"
         y="150.31419"
         id="tspan11459"></tspan><tspan
         sodipodi:role="line"
         style="stroke-width:0.364013"
         x="70.182556"
         y="157.56982"
         id="tspan11461">Disparar:</tspan><tspan
         sodipodi:role="line"
         style="stroke-width:0.364013"
         x="70.182556"
         y="164.82547"
         id="tspan11463">click izquierdo.</tspan><tspan
         sodipodi:role="line"
         style="stroke-width:0.364013"
         x="70.182556"
         y="172.08113"
         id="tspan11465" /></text>
  </g>
</svg>
